<svg width="30" height="30" viewBox="0 0 30 30" fill="none" xmlns="http://www.w3.org/2000/svg">
    <path d="M11.25 27.5C10.9185 27.5 10.6005 27.3683 10.3661 27.1339C10.1317 26.8995 10 26.5815 10 26.25V22.5H5C4.33696 22.5 3.70107 22.2366 3.23223 21.7678C2.76339 21.2989 2.5 20.663 2.5 20V5C2.5 4.33696 2.76339 3.70107 3.23223 3.23223C3.70107 2.76339 4.33696 2.5 5 2.5H25C25.663 2.5 26.2989 2.76339 26.7678 3.23223C27.2366 3.70107 27.5 4.33696 27.5 5V20C27.5 20.663 27.2366 21.2989 26.7678 21.7678C26.2989 22.2366 25.663 22.5 25 22.5H17.375L12.75 27.1375C12.5 27.375 12.1875 27.5 11.875 27.5H11.25ZM12.5 20V23.85L16.35 20H25V5H5V20H12.5Z" fill="#159662"/>
</svg>
