<svg width="30" height="30" viewBox="0 0 30 30" fill="none" xmlns="http://www.w3.org/2000/svg">
    <path d="M13.5 22.875C13.5 22.3777 13.6975 21.9008 14.0492 21.5492C14.4008 21.1975 14.8777 21 15.375 21C15.8723 21 16.3492 21.1975 16.7008 21.5492C17.0525 21.9008 17.25 22.3777 17.25 22.875C17.25 23.3723 17.0525 23.8492 16.7008 24.2008C16.3492 24.5525 15.8723 24.75 15.375 24.75C14.8777 24.75 14.4008 24.5525 14.0492 24.2008C13.6975 23.8492 13.5 23.3723 13.5 22.875ZM13.5 15.375C13.5 14.8777 13.6975 14.4008 14.0492 14.0492C14.4008 13.6975 14.8777 13.5 15.375 13.5C15.8723 13.5 16.3492 13.6975 16.7008 14.0492C17.0525 14.4008 17.25 14.8777 17.25 15.375C17.25 15.8723 17.0525 16.3492 16.7008 16.7008C16.3492 17.0525 15.8723 17.25 15.375 17.25C14.8777 17.25 14.4008 17.0525 14.0492 16.7008C13.6975 16.3492 13.5 15.8723 13.5 15.375ZM13.5 7.875C13.5 7.37772 13.6975 6.90081 14.0492 6.54917C14.4008 6.19754 14.8777 6 15.375 6C15.8723 6 16.3492 6.19754 16.7008 6.54917C17.0525 6.90081 17.25 7.37772 17.25 7.875C17.25 8.37228 17.0525 8.84919 16.7008 9.20083C16.3492 9.55246 15.8723 9.75 15.375 9.75C14.8777 9.75 14.4008 9.55246 14.0492 9.20083C13.6975 8.84919 13.5 8.37228 13.5 7.875Z" fill="black"/>
</svg>
