<svg width="25" height="25" viewBox="0 0 25 25" fill="none" xmlns="http://www.w3.org/2000/svg">
    <path d="M22.4277 21.3223L17.5381 16.4336C18.9553 14.7321 19.662 12.5498 19.5111 10.3406C19.3603 8.13134 18.3636 6.0653 16.7282 4.57225C15.0929 3.0792 12.9449 2.27409 10.7311 2.3244C8.51733 2.37471 6.40815 3.27657 4.84234 4.84237C3.27654 6.40818 2.37468 8.51736 2.32437 10.7312C2.27405 12.945 3.07917 15.093 4.57222 16.7283C6.06527 18.3636 8.13131 19.3603 10.3405 19.5112C12.5498 19.662 14.7321 18.9553 16.4336 17.5381L21.3222 22.4277C21.3948 22.5003 21.481 22.5579 21.5758 22.5972C21.6707 22.6365 21.7723 22.6567 21.875 22.6567C21.9776 22.6567 22.0793 22.6365 22.1741 22.5972C22.269 22.5579 22.3551 22.5003 22.4277 22.4277C22.5003 22.3552 22.5579 22.269 22.5972 22.1741C22.6364 22.0793 22.6567 21.9777 22.6567 21.875C22.6567 21.7724 22.6364 21.6707 22.5972 21.5759C22.5579 21.481 22.5003 21.3949 22.4277 21.3223ZM3.90623 10.9375C3.90623 9.54686 4.3186 8.18744 5.09121 7.03116C5.86381 5.87487 6.96194 4.97366 8.24674 4.44148C9.53153 3.9093 10.9453 3.77006 12.3092 4.04136C13.6731 4.31267 14.926 4.98233 15.9093 5.96566C16.8927 6.949 17.5623 8.20185 17.8336 9.56578C18.1049 10.9297 17.9657 12.3435 17.4335 13.6283C16.9013 14.913 16.0001 16.0112 14.8438 16.7838C13.6875 17.5564 12.3281 17.9688 10.9375 17.9688C9.07331 17.9667 7.28609 17.2252 5.96792 15.9071C4.64975 14.5889 3.9083 12.8017 3.90623 10.9375Z" fill="#7A7A7A"/>
</svg>
