<svg width="25" height="25" viewBox="0 0 25 25" fill="none" xmlns="http://www.w3.org/2000/svg">
    <path d="M22.4277 21.3223L17.5381 16.4336C18.9553 14.7321 19.662 12.5498 19.5112 10.3406C19.3603 8.13134 18.3636 6.0653 16.7283 4.57225C15.093 3.0792 12.945 2.27409 10.7312 2.3244C8.51736 2.37471 6.40818 3.27657 4.84237 4.84237C3.27657 6.40818 2.37471 8.51736 2.3244 10.7312C2.27409 12.945 3.0792 15.093 4.57225 16.7283C6.0653 18.3636 8.13134 19.3603 10.3406 19.5112C12.5498 19.662 14.7321 18.9553 16.4336 17.5381L21.3223 22.4277C21.3949 22.5003 21.481 22.5579 21.5759 22.5972C21.6707 22.6365 21.7724 22.6567 21.875 22.6567C21.9777 22.6567 22.0793 22.6365 22.1741 22.5972C22.269 22.5579 22.3552 22.5003 22.4277 22.4277C22.5003 22.3552 22.5579 22.269 22.5972 22.1741C22.6365 22.0793 22.6567 21.9777 22.6567 21.875C22.6567 21.7724 22.6365 21.6707 22.5972 21.5759C22.5579 21.481 22.5003 21.3949 22.4277 21.3223ZM3.90626 10.9375C3.90626 9.54686 4.31864 8.18744 5.09124 7.03116C5.86384 5.87487 6.96197 4.97366 8.24677 4.44148C9.53156 3.9093 10.9453 3.77006 12.3092 4.04136C13.6732 4.31267 14.926 4.98233 15.9094 5.96566C16.8927 6.949 17.5624 8.20185 17.8337 9.56578C18.105 10.9297 17.9657 12.3435 17.4335 13.6283C16.9014 14.913 16.0001 16.0112 14.8439 16.7838C13.6876 17.5564 12.3282 17.9688 10.9375 17.9688C9.07334 17.9667 7.28612 17.2252 5.96795 15.9071C4.64978 14.5889 3.90833 12.8017 3.90626 10.9375Z" fill="#7A7A7A"/>
</svg>
